<svg version="1.1" xmlns="http://www.w3.org/2000/svg" viewBox="0 0 1436.1538706075237 1439.8640433959251" width="2872.3077412150474" height="2879.7280867918503" filter="invert(93%) hue-rotate(180deg)">
  <!-- svg-source:excalidraw -->
  
  <defs>
    <style>
      @font-face {
        font-family: "Virgil";
        src: url("https://plus.excalidraw.com/Virgil.woff2");
      }
      @font-face {
        font-family: "Cascadia";
        src: url("https://plus.excalidraw.com/Cascadia.woff2");
      }
    </style>
  </defs>
  <rect x="0" y="0" width="1436.1538706075237" height="1439.8640433959251" fill="#ffffff"></rect><g transform="translate(580.9496701736653 454.70941008799446) rotate(0 104.64372301255878 41.3511486098015)"><text x="0" y="28.351148609801463" font-family="Virgil, Segoe UI Emoji" font-size="33.75603968147057px" fill="#5c940d" text-anchor="start" style="white-space: pre;" direction="ltr">Genesis Mint</text><text x="0" y="69.70229721960293" font-family="Virgil, Segoe UI Emoji" font-size="33.75603968147057px" fill="#5c940d" text-anchor="start" style="white-space: pre;" direction="ltr">   Holders</text></g><g transform="translate(580.7962804547774 657.9871920640753) rotate(0 100.42421805237495 41.3511486098015)"><text x="0" y="28.351148609801463" font-family="Virgil, Segoe UI Emoji" font-size="33.75603968147057px" fill="#1864ab" text-anchor="start" style="white-space: pre;" direction="ltr">NFgene DAO</text><text x="0" y="69.70229721960293" font-family="Virgil, Segoe UI Emoji" font-size="33.75603968147057px" fill="#1864ab" text-anchor="start" style="white-space: pre;" direction="ltr"> governance</text></g><g stroke-linecap="round" transform="translate(398.854692462769 822.027961781971) rotate(0 23.015462870955787 28.385751276213114)"><path d="M22.92 1.68 C31.92 9.92, 39.84 21.17, 46.19 28.54 M23.83 0.88 C29.17 8.08, 35.62 14.75, 45.34 28.69 M45.93 29.68 C40.72 38.74, 33.4 46.95, 25.58 56.31 M45.43 29.79 C37.89 39.36, 29.99 48.93, 23.37 56.53 M24.36 57.38 C16.92 51.68, 11.47 43.54, 1.24 28.96 M23.53 55.84 C18.75 50.61, 12.61 44.02, -0.88 29.27 M1.51 30.04 C6.39 22.58, 14.62 11.77, 25.22 -0.1 M0.4 28.39 C6.81 20.87, 13.53 12.65, 24.99 0.75" stroke="#ff00ff" stroke-width="1" fill="none"></path></g><g stroke-linecap="round" transform="translate(952.300250504738 365.86105089493503) rotate(0 23.01546287095573 28.385751276213114)"><path d="M23.18 -1.97 C29.43 7.06, 35.7 15.18, 46.54 27.78 M24.25 -0.94 C29.68 6.93, 35.13 14.81, 46.83 29.51 M47.59 27.64 C40.55 36.49, 33.41 45.52, 24.26 57.41 M45.9 29.17 C39.66 37.23, 32.72 45.59, 23.62 56.52 M25.77 54.8 C17.06 51.57, 14.11 43.01, 1.06 27.24 M24.97 57.41 C18.36 50.95, 12.65 45.05, 0.16 28.37 M-1.7 30.44 C9.07 18.66, 14.16 11.77, 22.96 -0.47 M-0.06 28.51 C8.83 19.68, 16.09 10.05, 24.66 0.66" stroke="#000000" stroke-width="1" fill="none"></path></g><g stroke-linecap="round"><g transform="translate(965.5482284219584 609.5084747458602) rotate(264.54919731701744 -1.2520503107002696 35.46209244730187)"><path d="M-0.65 0.19 C-1.17 12.05, -2.67 58.73, -3.23 70.62 M1.21 -0.75 C0.62 11.28, -2.73 59.42, -3.72 71.67" stroke="#d9480f" stroke-width="1" fill="none"></path></g><g transform="translate(965.5482284219584 609.5084747458602) rotate(264.54919731701744 -1.2520503107002696 35.46209244730187)"><path d="M-11.55 44.27 C-11.15 51.41, -7.33 57.88, -3.76 72.76 M-10.92 43.38 C-11.08 48.66, -8.88 55.07, -4.22 72.14" stroke="#d9480f" stroke-width="1" fill="none"></path></g><g transform="translate(965.5482284219584 609.5084747458602) rotate(264.54919731701744 -1.2520503107002696 35.46209244730187)"><path d="M8.92 45.78 C3.37 52.37, 1.24 58.4, -3.76 72.76 M9.55 44.9 C5.28 49.79, 3.37 55.88, -4.22 72.14" stroke="#d9480f" stroke-width="1" fill="none"></path></g></g><g stroke-linecap="round"><g transform="translate(877.174491525954 771.0125684804889) rotate(309.2987785031585 -1.7893655405948152 35.84863020538603)"><path d="M0.35 -0.96 C-0.33 10.86, -2.62 59.27, -3.37 71.26 M-0.93 1.15 C-1.75 13.12, -3.26 60.84, -3.93 72.66" stroke="#d9480f" stroke-width="1" fill="none"></path></g><g transform="translate(877.174491525954 771.0125684804889) rotate(309.2987785031585 -1.7893655405948152 35.84863020538603)"><path d="M-14.58 45.29 C-10.12 54.17, -7.31 64.1, -2.71 73.48 M-13.72 43.51 C-9.71 53.36, -6.48 62.21, -4.11 72.29" stroke="#d9480f" stroke-width="1" fill="none"></path></g><g transform="translate(877.174491525954 771.0125684804889) rotate(309.2987785031585 -1.7893655405948152 35.84863020538603)"><path d="M5.93 46.17 C3.06 54.79, -1.45 64.41, -2.71 73.48 M6.79 44.39 C4.12 53.76, 0.67 62.31, -4.11 72.29" stroke="#d9480f" stroke-width="1" fill="none"></path></g></g><g stroke-linecap="round"><g transform="translate(480.05849403769184 742.4072831576643) rotate(54.06308586878139 -2.752058456066095 35.398178035935985)"><path d="M0.41 -0.18 C-0.19 11.64, -3.81 59.05, -4.67 70.91 M-0.83 -1.32 C-1.55 10.66, -5.08 59.9, -5.91 72.12" stroke="#087f5b" stroke-width="1" fill="none"></path></g><g transform="translate(480.05849403769184 742.4072831576643) rotate(54.06308586878139 -2.752058456066095 35.398178035935985)"><path d="M-14.48 42.34 C-13.47 48.31, -11.64 56.79, -5.71 72.4 M-14.95 42.68 C-12.89 49.53, -10.53 57.73, -6.24 72.36" stroke="#087f5b" stroke-width="1" fill="none"></path></g><g transform="translate(480.05849403769184 742.4072831576643) rotate(54.06308586878139 -2.752058456066095 35.398178035935985)"><path d="M5.99 43.78 C2.66 49.51, 0.15 57.68, -5.71 72.4 M5.52 44.11 C2.49 50.56, -0.26 58.4, -6.24 72.36" stroke="#087f5b" stroke-width="1" fill="none"></path></g></g><g stroke-linecap="round"><g transform="translate(507.34567368871717 782.2295570634483) rotate(231.5713024056576 -2.4566878307527418 35.765114134096166)"><path d="M-0.18 -0.56 C-0.96 11.18, -3.98 58.75, -4.73 70.89 M-1.74 1.76 C-2.12 13.62, -1.68 60.66, -2.35 72.09" stroke="#d9480f" stroke-width="1" fill="none"></path></g><g transform="translate(507.34567368871717 782.2295570634483) rotate(231.5713024056576 -2.4566878307527418 35.765114134096166)"><path d="M-12.99 42.67 C-10.14 51.18, -4.9 60.75, -2.06 71.08 M-12.65 43.1 C-10.72 50.35, -7.36 57.22, -2.11 71.64" stroke="#d9480f" stroke-width="1" fill="none"></path></g><g transform="translate(507.34567368871717 782.2295570634483) rotate(231.5713024056576 -2.4566878307527418 35.765114134096166)"><path d="M7.53 43.07 C4.29 51.43, 3.45 60.89, -2.06 71.08 M7.87 43.51 C4.82 50.5, 3.21 57.27, -2.11 71.64" stroke="#d9480f" stroke-width="1" fill="none"></path></g></g><g stroke-linecap="round"><g transform="translate(449.9295929730706 419.2843510537382) rotate(299.8600371511371 -5.161620858960589 35.001332721991275)"><path d="M-0.29 -0.94 C-2.38 11.03, -10.17 59.32, -12.09 70.94 M1.76 1.18 C0.03 12.92, -7.29 58, -9.71 69.4" stroke="#d9480f" stroke-width="1" fill="none"></path></g><g transform="translate(449.9295929730706 419.2843510537382) rotate(299.8600371511371 -5.161620858960589 35.001332721991275)"><path d="M-16.29 38.77 C-11.41 49.27, -13.27 59.87, -8.88 69.19 M-14.03 39.66 C-12.47 50.49, -10.03 62.83, -9.43 68.82" stroke="#d9480f" stroke-width="1" fill="none"></path></g><g transform="translate(449.9295929730706 419.2843510537382) rotate(299.8600371511371 -5.161620858960589 35.001332721991275)"><path d="M3.9 42.47 C2 51.67, -6.67 61.03, -8.88 69.19 M6.16 43.36 C-0.08 52.57, -5.42 63.48, -9.43 68.82" stroke="#d9480f" stroke-width="1" fill="none"></path></g></g><g stroke-linecap="round"><g transform="translate(395.2072951809955 570.4302862156219) rotate(91.53762769252488 -2.355185817546271 35.86408236994646)"><path d="M-0.01 0.07 C-0.91 12.1, -3.93 60.72, -4.71 72.66 M-1.47 -0.94 C-2.04 10.74, -1.59 58.79, -2.31 71.14" stroke="#d9480f" stroke-width="1" fill="none"></path></g><g transform="translate(395.2072951809955 570.4302862156219) rotate(91.53762769252488 -2.355185817546271 35.86408236994646)"><path d="M-11.86 41.75 C-6.48 52.06, -4.51 64.73, -3.03 72.58 M-12.7 41.87 C-9.62 51.45, -7.59 57.53, -1.81 70.87" stroke="#d9480f" stroke-width="1" fill="none"></path></g><g transform="translate(395.2072951809955 570.4302862156219) rotate(91.53762769252488 -2.355185817546271 35.86408236994646)"><path d="M8.65 42.17 C6.62 52.33, 1.16 64.84, -3.03 72.58 M7.82 42.29 C5.17 51.86, 1.49 57.83, -1.81 70.87" stroke="#d9480f" stroke-width="1" fill="none"></path></g></g><g stroke-linecap="round"><g transform="translate(393.0684464871915 618.7280348417632) rotate(269.0458442294011 -1.6283898022501546 35.7984958430776)"><path d="M0.07 -0.6 C-0.51 11.23, -2.31 58.79, -2.98 70.96 M-1.35 1.71 C-2.03 13.69, -2.8 60.73, -3.33 72.19" stroke="#000000" stroke-width="1" fill="none"></path></g><g transform="translate(393.0684464871915 618.7280348417632) rotate(269.0458442294011 -1.6283898022501546 35.7984958430776)"><path d="M-13.74 45.6 C-10.5 53.76, -4.89 62.37, -1.89 71.77 M-13.62 43.44 C-9.16 50.67, -8.41 59.93, -3.59 71.3" stroke="#000000" stroke-width="1" fill="none"></path></g><g transform="translate(393.0684464871915 618.7280348417632) rotate(269.0458442294011 -1.6283898022501546 35.7984958430776)"><path d="M6.77 46.21 C3.03 54.17, 1.65 62.58, -1.89 71.77 M6.89 44.05 C5.71 50.97, 0.83 60.05, -3.59 71.3" stroke="#000000" stroke-width="1" fill="none"></path></g></g><g stroke-linecap="round"><g transform="translate(681.4588995503334 809.0757018561505) rotate(535.9524062887417 -3.2775473141226144 33.950534290476185)"><path d="M0.17 0.26 C-0.76 11.31, -4.63 55.95, -5.62 67.35 M-1.2 -0.65 C-2.31 11.07, -5.8 57.34, -6.73 68.55" stroke="#087f5b" stroke-width="1" fill="none"></path></g><g transform="translate(681.4588995503334 809.0757018561505) rotate(535.9524062887417 -3.2775473141226144 33.950534290476185)"><path d="M-14.31 39.14 C-13.17 47.47, -8.66 57.19, -8.17 66.74 M-15.21 40.22 C-12.67 50.21, -8.76 59.28, -5.99 69.41" stroke="#087f5b" stroke-width="1" fill="none"></path></g><g transform="translate(681.4588995503334 809.0757018561505) rotate(535.9524062887417 -3.2775473141226144 33.950534290476185)"><path d="M6.15 40.75 C1.2 48.63, -0.36 57.87, -8.17 66.74 M5.24 41.83 C0.86 51.11, -2.16 59.64, -5.99 69.41" stroke="#087f5b" stroke-width="1" fill="none"></path></g></g><g stroke-linecap="round" transform="translate(21.502421617441428 1100.4790080024784) rotate(0 21.471717398776924 26.481797605902784)"><path d="M21.18 -0.41 C29.53 12.12, 36.51 21.17, 42.72 28.23 M21.77 -0.06 C26.65 8.11, 33.48 13.58, 43.14 27.91 M43.81 25.07 C37.45 37.56, 30.08 44.13, 22.5 53.87 M42.67 26.24 C34.56 37.09, 25.9 47.37, 21.95 52.64 M21.96 52.65 C15.32 44.39, 11.29 39.63, 0.07 25.63 M21.95 53.75 C16.6 45.4, 10.75 40.67, 0.37 26.15 M0.91 27.18 C4.19 22.02, 10.22 13.62, 23.75 1.51 M-0.89 26.9 C5.96 19.87, 12.06 11.82, 21.83 -0.41" stroke="#ff00ff" stroke-width="1" fill="none"></path></g><g transform="translate(74.97286710160847 1113.0041604674977) rotate(0 99.98671205636566 16.53323585183989)"><text x="0" y="24.066471703679973" font-family="Virgil, Segoe UI Emoji" font-size="25.19350225042286px" fill="#ff00ff" text-anchor="start" style="white-space: pre;" direction="ltr">NFgene Projects</text></g><g stroke-linecap="round"><g transform="translate(52.8280265238227 1208.7559682890922) rotate(90.25129405043909 -1.799873531594649 21.46184575888833)"><path d="M-1.18 -0.37 C-1.75 6.99, -2.8 37.33, -3.1 44.54 M0.41 -1.62 C-0.36 5.38, -3.33 35.22, -4.01 42.76" stroke="#d9480f" stroke-width="1" fill="none"></path></g><g transform="translate(52.8280265238227 1208.7559682890922) rotate(90.25129405043909 -1.799873531594649 21.46184575888833)"><path d="M-10.15 21.6 C-6.54 28.88, -7.48 34.67, -2.29 41.88 M-9.54 21.49 C-7.6 30.28, -5.51 36.89, -3.03 42.34" stroke="#d9480f" stroke-width="1" fill="none"></path></g><g transform="translate(52.8280265238227 1208.7559682890922) rotate(90.25129405043909 -1.799873531594649 21.46184575888833)"><path d="M4.83 23.03 C3.48 29.69, -2.43 35, -2.29 41.88 M5.44 22.92 C1.63 31.17, -2.03 37.23, -3.03 42.34" stroke="#d9480f" stroke-width="1" fill="none"></path></g></g><g stroke-linecap="round" transform="translate(655.739055530117 1103.104233440911) rotate(0 21.471717398776946 26.481797605902784)"><path d="M21.61 -1.33 C30.58 10.34, 37.57 20.98, 43.13 26.68 M21.01 0.3 C28.15 7.2, 32.37 14.65, 42.34 27.91 M43.16 26.49 C38.02 32.83, 35.06 36.44, 20.2 53.47 M43.63 27.06 C36.96 33.16, 33.26 39.05, 22.13 53.36 M20.56 52.5 C14.61 46.15, 8.29 38.61, -0.51 28.44 M22.57 52.6 C16.57 44.61, 8.73 37.3, -0.72 27.82 M0.28 27.92 C6.24 19.93, 7.03 17.17, 20.14 0.31 M0.86 27.58 C6.34 20.99, 11.74 12.81, 22.89 -0.49" stroke="#000000" stroke-width="1" fill="none"></path></g><g stroke-linecap="round"><g transform="translate(705.2171949819469 1208.7673038320652) rotate(90.25129405043909 -1.6893984692299568 22.052856857064853)"><path d="M0.2 0.06 C-0.33 7.55, -2.06 37.73, -2.81 45.05 M-1.16 -0.95 C-1.84 6.22, -3.42 35.82, -3.57 43.55" stroke="#d9480f" stroke-width="1" fill="none"></path></g><g transform="translate(705.2171949819469 1208.7673038320652) rotate(90.25129405043909 -1.6893984692299568 22.052856857064853)"><path d="M-10.17 23.2 C-6.1 27.46, -5.64 35.93, -2.47 43.78 M-9.86 23.05 C-8.57 27.16, -8.25 31.67, -3.11 44.44" stroke="#d9480f" stroke-width="1" fill="none"></path></g><g transform="translate(705.2171949819469 1208.7673038320652) rotate(90.25129405043909 -1.6893984692299568 22.052856857064853)"><path d="M4.87 23.79 C4.03 27.88, -0.41 36.16, -2.47 43.78 M5.18 23.65 C3.3 27.5, 0.47 31.89, -3.11 44.44" stroke="#d9480f" stroke-width="1" fill="none"></path></g></g><g stroke-linecap="round"><g transform="translate(41.932140077234976 1359.7042600603334) rotate(90.25129405043909 -0.46958262281892615 21.85755034105432)"><path d="M1.2 -0.94 C0.85 6.32, -0.97 37.38, -1.56 44.66 M0.37 1.18 C-0.12 8.61, -1.56 35.91, -2.14 42.95" stroke="#087f5b" stroke-width="1" fill="none"></path></g><g transform="translate(41.932140077234976 1359.7042600603334) rotate(90.25129405043909 -0.46958262281892615 21.85755034105432)"><path d="M-9.85 23.03 C-4.67 28.93, -5.81 35.41, -3.82 41.91 M-8.46 22.84 C-5.58 28.55, -3.17 36.14, -1.21 43.26" stroke="#087f5b" stroke-width="1" fill="none"></path></g><g transform="translate(41.932140077234976 1359.7042600603334) rotate(90.25129405043909 -0.46958262281892615 21.85755034105432)"><path d="M5.14 24.01 C5.18 29.73, -1.09 35.87, -3.82 41.91 M6.53 23.82 C4.18 29.16, 1.34 36.42, -1.21 43.26" stroke="#087f5b" stroke-width="1" fill="none"></path></g></g><g stroke-linecap="round"><g transform="translate(12.62217961567535 1067.268081680854) rotate(0 706.3339840857366 -1.169537039202396)"><path d="M0.39 -0.43 C236.03 -0.57, 1178.22 -1.76, 1413.53 -1.91 M-0.86 -1.7 C234.66 -1.57, 1176.78 -0.19, 1412.69 -0.48" stroke="#343a40" stroke-width="1" fill="none"></path></g></g><g transform="translate(737.5803234305044 1284.237678309383) rotate(0 177.21920832772048 16.878019840735305)"><text x="0" y="23.75603968147057" font-family="Virgil, Segoe UI Emoji" font-size="27.004831745176443px" fill="#000000" text-anchor="start" style="white-space: pre;" direction="ltr">web3 front end application</text></g><g stroke-linecap="round"><g transform="translate(710.4959746254494 1342.7031149559396) rotate(90.25129405043909 -1.5816070988569209 22.665406146232954)"><path d="M0.96 0.1 C0.39 7.53, -3.52 37.43, -4.12 45.17 M0 -0.9 C-0.13 6.6, -1.39 38.67, -1.92 46.23" stroke="#000000" stroke-width="1" fill="none"></path></g><g transform="translate(710.4959746254494 1342.7031149559396) rotate(90.25129405043909 -1.5816070988569209 22.665406146232954)"><path d="M-8.53 22.53 C-8.5 30.19, -4.59 36.11, -1.99 44.67 M-8.98 23.61 C-6.37 29.13, -5.63 35.21, -2.23 46.49" stroke="#000000" stroke-width="1" fill="none"></path></g><g transform="translate(710.4959746254494 1342.7031149559396) rotate(90.25129405043909 -1.5816070988569209 22.665406146232954)"><path d="M7.25 23.34 C3.52 30.93, 3.66 36.66, -1.99 44.67 M6.8 24.42 C5.3 29.78, 1.92 35.64, -2.23 46.49" stroke="#000000" stroke-width="1" fill="none"></path></g></g><g transform="translate(744.3315313667997 1339.0912427917735) rotate(0 231.22887181807334 16.878019840735305)"><text x="0" y="23.75603968147057" font-family="Virgil, Segoe UI Emoji" font-size="27.004831745176443px" fill="#000000" text-anchor="start" style="white-space: pre;" direction="ltr">generate fees from search queries</text></g><g transform="translate(717.3266996216234 233.58094322361103) rotate(0 177.21920832772048 16.878019840735305)"><text x="0" y="23.75603968147057" font-family="Virgil, Segoe UI Emoji" font-size="27.004831745176443px" fill="#000000" text-anchor="start" style="white-space: pre;" direction="ltr">web3 front end application</text></g><g stroke-linecap="round"><g transform="translate(653.4114820753646 295.9895430198219) rotate(0.6210676582367396 -2.021388964719222 36.44793320856297)"><path d="M1.03 1.12 C0.22 12.97, -4.12 60.35, -5.08 72.23 M0.12 0.67 C-0.31 12.68, -1.89 58.84, -2.87 70.47" stroke="#000000" stroke-width="1" fill="none"></path></g><g transform="translate(653.4114820753646 295.9895430198219) rotate(0.6210676582367396 -2.021388964719222 36.44793320856297)"><path d="M-9.68 40.14 C-7.66 48.83, -4.98 57.32, -2.49 72.45 M-11.25 41.74 C-7.97 50.98, -4.95 60.95, -3.21 70.56" stroke="#000000" stroke-width="1" fill="none"></path></g><g transform="translate(653.4114820753646 295.9895430198219) rotate(0.6210676582367396 -2.021388964719222 36.44793320856297)"><path d="M10.81 41.28 C7.03 49.82, 3.93 57.99, -2.49 72.45 M9.24 42.88 C5.49 51.85, 1.47 61.42, -3.21 70.56" stroke="#000000" stroke-width="1" fill="none"></path></g></g><g stroke-linecap="round"><g transform="translate(699.9915566456896 297.4979554145582) rotate(178.12928419511292 -1.4348365314780835 35.60842928309228)"><path d="M1.12 -0.97 C0.36 10.69, -2.68 58.93, -3.41 70.95 M0.25 1.14 C-0.71 13.47, -3.35 60.32, -3.99 72.18" stroke="#d9480f" stroke-width="1" fill="none"></path></g><g transform="translate(699.9915566456896 297.4979554145582) rotate(178.12928419511292 -1.4348365314780835 35.60842928309228)"><path d="M-14.28 44.63 C-9.95 56.17, -6.12 66.54, -2.02 73.06 M-12.68 44.33 C-11.3 50.26, -9.41 54.94, -3.9 71.86" stroke="#d9480f" stroke-width="1" fill="none"></path></g><g transform="translate(699.9915566456896 297.4979554145582) rotate(178.12928419511292 -1.4348365314780835 35.60842928309228)"><path d="M6.21 45.77 C2.41 57.05, -1.89 66.97, -2.02 73.06 M7.81 45.48 C4.96 51.23, 2.62 55.68, -3.9 71.86" stroke="#d9480f" stroke-width="1" fill="none"></path></g></g><g transform="translate(595.8049567683295 967.7748062955959) rotate(0 101.26811904441172 16.878019840735305)"><text x="0" y="23.75603968147057" font-family="Virgil, Segoe UI Emoji" font-size="27.004831745176443px" fill="#000000" text-anchor="start" style="white-space: pre;" direction="ltr">grants to DAO</text></g><g transform="translate(283.54432303538715 10) rotate(0 409.2919811378306 37.975544641654324)"><text x="0" y="52.95108928330873" font-family="Virgil, Segoe UI Emoji" font-size="60.760871426647px" fill="#000000" text-anchor="start" style="white-space: pre;" direction="ltr">NFgene Ecosystem Overview</text></g><g stroke-linecap="round" transform="translate(486.159814416892 417.87602994817644) rotate(0 197.16600119119488 177.21918257390598)"><path d="M193.69 -0.19 C211.4 -3.35, 230.75 2.29, 248.76 6.73 C266.77 11.17, 285.96 17.67, 301.75 26.46 C317.55 35.26, 331.32 47.13, 343.51 59.51 C355.7 71.89, 366.65 85.78, 374.88 100.73 C383.11 115.69, 390.08 132.47, 392.89 149.24 C395.7 166, 394.42 184.45, 391.74 201.31 C389.07 218.18, 384.2 235.28, 376.84 250.42 C369.48 265.57, 359.53 279.53, 347.57 292.2 C335.61 304.87, 320.86 317.13, 305.08 326.44 C289.31 335.74, 271 343.29, 252.92 348.02 C234.83 352.75, 215.06 355.08, 196.57 354.83 C178.08 354.58, 159.9 351.29, 141.96 346.53 C124.02 341.76, 104.65 335.13, 88.94 326.26 C73.23 317.38, 59.81 306.24, 47.72 293.27 C35.63 280.29, 24.1 263.86, 16.39 248.41 C8.68 232.96, 3.94 216.97, 1.47 200.58 C-1 184.19, -1.54 166.68, 1.55 150.07 C4.64 133.46, 11.79 116.23, 20.02 100.91 C28.26 85.59, 38.62 70.6, 50.95 58.17 C63.28 45.73, 78.07 34.9, 94 26.28 C109.93 17.65, 128.42 10.64, 146.51 6.43 C164.6 2.21, 191.92 1.31, 202.56 0.98 C213.21 0.64, 210.57 1.62, 210.39 4.41 M147.3 5.44 C163.55 -1.79, 184.71 -1.68, 203.11 -1.12 C221.51 -0.55, 239.85 3.67, 257.7 8.82 C275.55 13.98, 294.76 20.54, 310.2 29.79 C325.64 39.04, 338.83 51.05, 350.32 64.31 C361.82 77.58, 372.14 93.53, 379.19 109.36 C386.23 125.2, 390.84 142.46, 392.59 159.34 C394.34 176.21, 392.77 194.06, 389.69 210.61 C386.6 227.16, 382.14 243.81, 374.06 258.65 C365.98 273.48, 353.99 287.64, 341.21 299.6 C328.43 311.56, 313.6 321.96, 297.38 330.42 C281.16 338.88, 262.33 346.27, 243.88 350.37 C225.43 354.47, 205.23 356.14, 186.69 355.03 C168.16 353.92, 150.27 349.17, 132.68 343.69 C115.08 338.21, 96.42 331.77, 81.13 322.13 C65.84 312.48, 52.25 299.41, 40.91 285.82 C29.57 272.23, 19.54 256.29, 13.07 240.56 C6.61 224.84, 3.5 207.82, 2.1 191.47 C0.7 175.12, 1.01 158.68, 4.68 142.47 C8.35 126.25, 15.51 109.2, 24.12 94.2 C32.73 79.2, 43.44 64.31, 56.33 52.47 C69.22 40.64, 86.29 31.14, 101.46 23.19 C116.62 15.24, 139.91 7.03, 147.33 4.75 C154.75 2.46, 145.42 6.53, 145.96 9.48" stroke="#1864ab" stroke-width="1" fill="none"></path></g><g stroke-linecap="round" transform="translate(373.8100464894742 370.14025892009386) rotate(0 23.015462870955787 28.385751276213114)"><path d="M23.56 1.08 C29.49 8.44, 33.81 14.51, 44.2 28.07 M24.7 -0.17 C29.62 7.27, 34.21 14.75, 46.17 29.45 M45.54 30.8 C36.82 37.68, 30.21 46.57, 24.25 55.56 M46.57 28.39 C38.35 39.45, 30.71 50.73, 24.46 56.87 M22.32 57.63 C15.66 47.35, 8.52 39.37, 0.21 28.19 M24.78 57.27 C15.29 47.14, 5.68 37.75, 0.29 29.52 M-0.48 28.92 C8.23 22.98, 12.07 14.28, 22.37 -0.68 M0.05 28.99 C8.79 19.08, 16.97 7.34, 24.98 0.52" stroke="#ff00ff" stroke-width="1" fill="none"></path></g><g transform="translate(154.14989520527502 299.84825306372886) rotate(0 106 65)"><text x="0" y="29.333333333333336" font-family="Virgil, Segoe UI Emoji" font-size="33.75603968147057px" fill="#000000" text-anchor="start" style="white-space: pre;" direction="ltr">DNA &amp; RNA </text><text x="0" y="72.66666666666667" font-family="Virgil, Segoe UI Emoji" font-size="33.75603968147057px" fill="#000000" text-anchor="start" style="white-space: pre;" direction="ltr">sequence</text><text x="0" y="116" font-family="Virgil, Segoe UI Emoji" font-size="33.75603968147057px" fill="#000000" text-anchor="start" style="white-space: pre;" direction="ltr">collection</text></g><g transform="translate(44.39817748852158 591.0208618513416) rotate(0 110 43)"><text x="0" y="30" font-family="Virgil, Segoe UI Emoji" font-size="33.75603968147057px" fill="#000000" text-anchor="start" style="white-space: pre;" direction="ltr">Protein model</text><text x="0" y="73" font-family="Virgil, Segoe UI Emoji" font-size="33.75603968147057px" fill="#000000" text-anchor="start" style="white-space: pre;" direction="ltr">collection</text></g><g stroke-linecap="round" transform="translate(1034.2353930993786 592.7936713857503) rotate(0 23.01546287095573 28.385751276213114)"><path d="M22.79 -0.66 C29.34 5.95, 34.38 14.44, 46.38 28.52 M24.95 0.09 C29.02 6.54, 32.89 12.3, 45.05 29.72 M44.21 29.76 C38.84 36.11, 34.16 43.44, 24.28 57.13 M45.66 29 C37.58 39.87, 30.62 48.95, 23.93 57.72 M22.21 56.08 C16.04 50.06, 10.17 40.79, -0.73 30.26 M24.58 57.25 C17.53 48.08, 9.57 40.67, 0.2 29.56 M-0.6 27.62 C5.11 19.29, 14.52 12.96, 25.13 1.95 M-0.51 29.28 C7.9 18.76, 17.21 8.51, 23.02 -0.58" stroke="#343a40" stroke-width="1" fill="none"></path></g><g stroke-linecap="round" transform="translate(940.792725099775 817.2712837599029) rotate(0 23.01546287095573 28.385751276213114)"><path d="M25.83 0.23 C30.07 9.24, 40.33 20.5, 44.21 29.08 M24.98 0.15 C30.87 9.5, 39.34 20.87, 45.25 28.75 M46.89 30.43 C36.25 39.75, 30.46 49.37, 25.93 56.8 M45.68 29.29 C37.4 40.04, 30.6 49.9, 24.77 57.44 M22.3 57.6 C14.42 47.18, 6.09 35.66, -0.91 30.69 M23.29 55.78 C18.76 50.95, 14.23 44.17, 0.03 29.97 M0.39 29.29 C3.93 21.12, 11.63 13.91, 24.78 1.21 M0.43 28.58 C9.25 18.1, 17.74 8.96, 23.67 -0.08" stroke="#495057" stroke-width="1" fill="none"></path></g><g transform="translate(93.21284494584415 830.2185411779597) rotate(0 124.05344582940421 41.3511486098015)"><text x="0" y="28.351148609801463" font-family="Virgil, Segoe UI Emoji" font-size="33.75603968147057px" fill="#000000" text-anchor="start" style="white-space: pre;" direction="ltr">gene mutations</text><text x="0" y="69.70229721960293" font-family="Virgil, Segoe UI Emoji" font-size="33.75603968147057px" fill="#000000" text-anchor="start" style="white-space: pre;" direction="ltr">collection</text></g><g stroke-linecap="round" transform="translate(288.84068104495293 601.9998874387084) rotate(0 23.015462870955787 28.385751276213114)"><path d="M25.93 1.28 C28.14 7.15, 31.73 13.47, 46.36 27.74 M23.15 0.72 C31.43 7.65, 36.94 17.07, 45.51 28.77 M45.9 28.02 C40.47 37.75, 32.51 46.02, 25.32 58.1 M46.39 29.77 C39.3 38.31, 32.42 46.48, 24.05 56.79 M25.24 55.44 C13.95 47, 6.53 35.27, -0.34 28.78 M23.58 56.83 C16.69 47.86, 10.02 40.54, 0.05 28.19 M0.22 30.76 C8.94 17.8, 19 8.9, 23.32 -0.04 M-0.12 28.74 C8.34 19.4, 17.59 8.69, 24.74 0.91" stroke="#ff00ff" stroke-width="1" fill="none"></path></g><g stroke-linecap="round" transform="translate(652.331872526833 894.2964616288396) rotate(0 23.015462870955787 28.385751276213114)"><path d="M23.16 0.12 C30.53 7.29, 38.03 17.77, 46.13 27.37 M24.11 0.88 C32.25 10.33, 40.97 21.87, 45.69 28.98 M45.8 28.49 C36.95 40.73, 29.76 50.76, 25.47 58.58 M45.54 29.83 C40.54 34.99, 35.23 41.89, 23.2 56.05 M22.08 56.94 C15.76 46.94, 6.63 37.22, 1.14 30.86 M23.72 57.32 C14.68 45.74, 5.31 34.37, -0.69 28.24 M-1.46 29.42 C4.88 20.6, 13 14.61, 23.81 -0.18 M0.24 28.74 C8.75 18.76, 16.49 6.95, 24.48 -0.85" stroke="#5c940d" stroke-width="1" fill="none"></path></g><g stroke-linecap="round"><g transform="translate(964.4294561055847 562.0304866278345) rotate(87.0409807801412 -1.6943803771688408 35.880871645568504)"><path d="M-0.54 -0.65 C-1.2 11.44, -3.17 60.36, -3.92 72.41 M1.37 1.63 C0.58 13.39, -4.1 58.85, -4.76 70.75" stroke="#087f5b" stroke-width="1" fill="none"></path></g><g transform="translate(964.4294561055847 562.0304866278345) rotate(87.0409807801412 -1.6943803771688408 35.880871645568504)"><path d="M-13.77 42.14 C-8.87 49.01, -7.79 59.15, -6.53 70.7 M-13.12 42.77 C-9.59 51.57, -7.34 62.38, -4.15 70.24" stroke="#087f5b" stroke-width="1" fill="none"></path></g><g transform="translate(964.4294561055847 562.0304866278345) rotate(87.0409807801412 -1.6943803771688408 35.880871645568504)"><path d="M6.68 43.81 C5.45 50.09, 0.39 59.72, -6.53 70.7 M7.34 44.44 C3.64 52.45, -1.36 62.67, -4.15 70.24" stroke="#087f5b" stroke-width="1" fill="none"></path></g></g><g stroke-linecap="round"><g transform="translate(909.8284113806781 736.563593177083) rotate(131.7905619662823 -2.373085957384717 35.87949149932956)"><path d="M0.32 0.35 C-0.53 12.28, -4.29 60.41, -5.07 72.27 M-0.96 -0.51 C-1.46 11.02, -2.14 58.32, -2.86 70.54" stroke="#087f5b" stroke-width="1" fill="none"></path></g><g transform="translate(909.8284113806781 736.563593177083) rotate(131.7905619662823 -2.373085957384717 35.87949149932956)"><path d="M-11.57 40.41 C-7.92 50.25, -6.39 58.54, -3.22 71.75 M-13.12 41.27 C-9.45 52.32, -5.84 62.33, -3.44 70.36" stroke="#087f5b" stroke-width="1" fill="none"></path></g><g transform="translate(909.8284113806781 736.563593177083) rotate(131.7905619662823 -2.373085957384717 35.87949149932956)"><path d="M8.94 41.11 C6.32 50.79, 1.59 58.87, -3.22 71.75 M7.39 41.97 C4.06 52.64, 0.67 62.42, -3.44 70.36" stroke="#087f5b" stroke-width="1" fill="none"></path></g></g><g stroke-linecap="round"><g transform="translate(471.44291908314494 381.50103846703746) rotate(122.35182061426072 -2.1109655146030946 35.30872974308454)"><path d="M-0.9 -0.29 C-1.57 11.45, -4.7 58.98, -5.05 70.9 M0.83 -1.48 C0.61 10.37, -2.16 59.8, -2.83 72.1" stroke="#087f5b" stroke-width="1" fill="none"></path></g><g transform="translate(471.44291908314494 381.50103846703746) rotate(122.35182061426072 -2.1109655146030946 35.30872974308454)"><path d="M-12.02 41.82 C-10.6 51.51, -8.21 54.16, -2.73 72.92 M-12.49 44.08 C-8.94 51.89, -7.03 60.71, -2.68 72.38" stroke="#087f5b" stroke-width="1" fill="none"></path></g><g transform="translate(471.44291908314494 381.50103846703746) rotate(122.35182061426072 -2.1109655146030946 35.30872974308454)"><path d="M8.47 42.95 C5.45 52.23, 3.42 54.64, -2.73 72.92 M8 45.2 C5.62 52.75, 1.59 61.25, -2.68 72.38" stroke="#087f5b" stroke-width="1" fill="none"></path></g></g><g stroke-linecap="round"><g transform="translate(676.4336470988544 552.5684294843127) rotate(0 -0.4343347667216335 51.32430754137067)"><path d="M0.75 -0.08 C0.62 17.22, -1.44 86.49, -1.62 103.81 M-0.31 -1.16 C-0.01 15.8, 0.63 84.96, 0.51 102.15" stroke="#000000" stroke-width="1" fill="none"></path></g><g transform="translate(676.4336470988544 552.5684294843127) rotate(0 -0.4343347667216335 51.32430754137067)"><path d="M-9.95 72.14 C-5.97 80.66, -3.55 87.37, 1.6 101.59 M-8.87 74.23 C-7.12 80.32, -4.99 88.3, 1 101.6" stroke="#000000" stroke-width="1" fill="none"></path></g><g transform="translate(676.4336470988544 552.5684294843127) rotate(0 -0.4343347667216335 51.32430754137067)"><path d="M10.57 72.09 C9.84 80.75, 7.54 87.48, 1.6 101.59 M11.65 74.17 C8.19 80.22, 5.11 88.21, 1 101.6" stroke="#000000" stroke-width="1" fill="none"></path></g></g><g stroke-linecap="round"><g transform="translate(902.8150428992712 393.5946549285866) rotate(47.81225311917172 -2.2499221394686515 36.031045967752675)"><path d="M-1.04 0.62 C-2.01 12.46, -4.44 60.38, -5.11 72.16 M0.61 -0.1 C-0.06 11.9, -2.38 58.27, -2.92 70.37" stroke="#000000" stroke-width="1" fill="none"></path></g><g transform="translate(902.8150428992712 393.5946549285866) rotate(47.81225311917172 -2.2499221394686515 36.031045967752675)"><path d="M-10.79 40.06 C-7.32 50.53, -5.55 60.62, -2.6 72.14 M-11.51 41.57 C-8.07 53.39, -3.92 64.93, -2.37 71.24" stroke="#000000" stroke-width="1" fill="none"></path></g><g transform="translate(902.8150428992712 393.5946549285866) rotate(47.81225311917172 -2.2499221394686515 36.031045967752675)"><path d="M9.71 41.04 C5.83 50.98, 0.26 60.72, -2.6 72.14 M8.99 42.55 C4.4 54.12, 0.51 65.28, -2.37 71.24" stroke="#000000" stroke-width="1" fill="none"></path></g></g><g stroke-linecap="round"><g transform="translate(933.4505030786995 429.5711951618214) rotate(225.3204696560479 -1.737121856511635 35.333504586659956)"><path d="M0.62 -1 C-0.15 10.94, -2.65 58.69, -3.48 70.61 M-0.51 1.09 C-1.48 13.25, -3.31 59.96, -4.09 71.67" stroke="#d9480f" stroke-width="1" fill="none"></path></g><g transform="translate(933.4505030786995 429.5711951618214) rotate(225.3204696560479 -1.737121856511635 35.333504586659956)"><path d="M-14.55 44.04 C-11.22 53.83, -7.92 65.79, -2.32 73.5 M-13.03 43.15 C-9.24 53.4, -5.97 62.76, -3.23 71.47" stroke="#d9480f" stroke-width="1" fill="none"></path></g><g transform="translate(933.4505030786995 429.5711951618214) rotate(225.3204696560479 -1.737121856511635 35.333504586659956)"><path d="M5.94 45.1 C1.24 54.58, -3.51 66.12, -2.32 73.5 M7.46 44.21 C4.37 54.17, 0.76 63.17, -3.23 71.47" stroke="#d9480f" stroke-width="1" fill="none"></path></g></g><g transform="translate(1020.7828472401188 371.0498076115482) rotate(0 193.2533271764189 41.3511486098015)"><text x="0" y="28.351148609801463" font-family="Virgil, Segoe UI Emoji" font-size="33.75603968147057px" fill="#000000" text-anchor="start" style="white-space: pre;" direction="ltr">document a new protein</text><text x="0" y="69.70229721960293" font-family="Virgil, Segoe UI Emoji" font-size="33.75603968147057px" fill="#000000" text-anchor="start" style="white-space: pre;" direction="ltr">interaction</text></g><g transform="translate(1138.4556791286711 576.2403051991228) rotate(0 129.9607527736615 41.3511486098015)"><text x="0" y="28.351148609801463" font-family="Virgil, Segoe UI Emoji" font-size="33.75603968147057px" fill="#000000" text-anchor="start" style="white-space: pre;" direction="ltr">document a new</text><text x="0" y="69.70229721960293" font-family="Virgil, Segoe UI Emoji" font-size="33.75603968147057px" fill="#000000" text-anchor="start" style="white-space: pre;" direction="ltr">mutation</text></g><g stroke-linecap="round"><g transform="translate(51.22582042714657 1163.864951350455) rotate(90.25129405043909 -1.9703812732955086 22.187068212512486)"><path d="M-0.08 0.78 C-0.8 8.19, -3.24 37.02, -3.87 44.23 M-1.57 0.14 C-1.95 7.19, -0.95 34.75, -1.52 42.3" stroke="#087f5b" stroke-width="1" fill="none"></path></g><g transform="translate(51.22582042714657 1163.864951350455) rotate(90.25129405043909 -1.9703812732955086 22.187068212512486)"><path d="M-7.43 20.36 C-5.71 27.48, -3.55 37.59, -1.13 42.33 M-9.39 22.24 C-5.05 29.37, -3.96 37.69, -1.11 43.1" stroke="#087f5b" stroke-width="1" fill="none"></path></g><g transform="translate(51.22582042714657 1163.864951350455) rotate(90.25129405043909 -1.9703812732955086 22.187068212512486)"><path d="M7.61 20.59 C4.2 27.62, 1.22 37.65, -1.13 42.33 M5.66 22.47 C4.11 29.52, -0.69 37.76, -1.11 43.1" stroke="#087f5b" stroke-width="1" fill="none"></path></g></g><g transform="translate(92.7095730248966 1165.6011988829302) rotate(0 203.12261189403466 16.53323585183989)"><text x="0" y="24.066471703679973" font-family="Virgil, Segoe UI Emoji" font-size="25.19350225042286px" fill="#087f5b" text-anchor="start" style="white-space: pre;" direction="ltr">project royalties flowing to DAO</text></g><g transform="translate(98.31345604499495 1219.3932632671247) rotate(0 245.63664694162316 16.53323585183989)"><text x="0" y="24.066471703679973" font-family="Virgil, Segoe UI Emoji" font-size="25.19350225042289px" fill="#d9480f" text-anchor="start" style="white-space: pre;" direction="ltr">DAO grants to commission new projects</text></g><g transform="translate(709.4586583958665 1114.3835989982733) rotate(0 186.6557193798194 15.482962897865264)"><text x="0" y="21.965925795730417" font-family="Virgil, Segoe UI Emoji" font-size="25.193502250422853px" fill="#000000" text-anchor="start" style="white-space: pre;" direction="ltr">research contribution bounties</text></g><g transform="translate(750.5254430044715 1164.99712760731) rotate(0 227.85326784992628 16.878019840735305)"><text x="0" y="23.75603968147057" font-family="Virgil, Segoe UI Emoji" font-size="27.406475589188673px" fill="#000000" text-anchor="start" style="white-space: pre;" direction="ltr">contributions to existing research</text></g><g transform="translate(752.9155843824394 1216.211324692288) rotate(0 308.32285037837266 17.129047243242894)"><text x="0" y="24.25809448648586" font-family="Virgil, Segoe UI Emoji" font-size="27.406475589188695px" fill="#000000" text-anchor="start" style="white-space: pre;" direction="ltr">bounties &amp; recognition accrue to contributors</text></g><g stroke-linecap="round"><g transform="translate(701.9793999087206 1158.7344533467774) rotate(90.25129405043909 -1.4057410343624497 23.635748395926157)"><path d="M0.1 -0.56 C-0.23 6.99, -2 38.59, -2.37 46.22 M-1.31 1.77 C-1.69 9.45, -2.74 40.44, -2.91 47.83" stroke="#000000" stroke-width="1" fill="none"></path></g><g transform="translate(701.9793999087206 1158.7344533467774) rotate(90.25129405043909 -1.4057410343624497 23.635748395926157)"><path d="M-11.09 27.19 C-7.86 33.41, -7.58 37.72, -1.8 46.56 M-9.88 26.06 C-6.96 34.55, -4.67 42.96, -3.68 47.92" stroke="#000000" stroke-width="1" fill="none"></path></g><g transform="translate(701.9793999087206 1158.7344533467774) rotate(90.25129405043909 -1.4057410343624497 23.635748395926157)"><path d="M4.71 27.66 C3.76 33.76, -0.14 37.96, -1.8 46.56 M5.91 26.53 C2.72 34.93, -1.11 43.16, -3.68 47.92" stroke="#000000" stroke-width="1" fill="none"></path></g></g><g stroke-linecap="round" transform="translate(17.035300199849758 1285.2527903079833) rotate(0 23.459015602723852 28.93279991010104)"><path d="M22.32 0.27 C29.56 10, 38.96 16.15, 48.46 30.84 M24.12 0 C30.86 8.94, 37.52 18.42, 46 28.46 M47.7 29.61 C41.43 35.2, 34.95 44.84, 23.62 58.15 M46.66 29.63 C41.52 36.78, 34.51 44.98, 24.87 58.25 M25.38 57.69 C14.62 46.85, 9.79 40.26, -1.02 29.4 M24.29 58.64 C15.51 48.55, 8.37 38.39, 0.32 28.95 M1.24 30.76 C5.81 20.34, 12.11 12.97, 25.49 -0.33 M0.53 28.95 C6.4 20.74, 13.6 12.93, 23.47 -0.51" stroke="#5c940d" stroke-width="1" fill="none"></path></g><g transform="translate(77.29157707990146 1299.6532984328358) rotate(0 168.5922626656433 15.482962897865264)"><text x="0" y="21.965925795730417" font-family="Virgil, Segoe UI Emoji" font-size="25.193502250422856px" fill="#000000" text-anchor="start" style="white-space: pre;" direction="ltr">grants to the NFgene DAO</text></g><g transform="translate(84.44086861623725 1353.4712150408056) rotate(0 257.18921702564995 15.482962897865264)"><text x="0" y="21.965925795730417" font-family="Virgil, Segoe UI Emoji" font-size="25.193502250422863px" fill="#087f5b" text-anchor="start" style="white-space: pre;" direction="ltr">grants from the community fund the DAO</text></g><g stroke-linecap="round"><g transform="translate(9.950614234153136 138.9615441243593) rotate(0 704.5196991078612 -0.5333348133120808)"><path d="M0.99 -0.9 C235.97 -1.29, 1174.38 -2.01, 1408.99 -2.31 M0.05 1.24 C235.02 1.07, 1173.82 -0.25, 1408.5 -0.71" stroke="#000000" stroke-width="1" fill="none"></path></g></g><g stroke-linecap="round" transform="translate(660.411140557304 1275.4778015362551) rotate(0 21.471717398776946 26.481797605902784)"><path d="M22.56 1.46 C29.72 10.25, 34.78 15.1, 43.41 27.6 M22.78 -0.2 C28.51 8.06, 35.18 16.74, 43.02 27.33 M42.01 27.1 C38.61 34.71, 29.88 42.7, 22.12 51.46 M42.84 27.01 C36.3 34.6, 31.89 42.1, 22.26 52.64 M23.22 51.56 C16.31 47.57, 11.65 36.87, -0.85 28.47 M21.37 52.19 C15.09 43.37, 6.43 35.35, -0.45 26.3 M1.72 25.87 C6.14 18.91, 10.42 13.73, 21.57 -0.04 M-0.08 26.86 C9.14 16.62, 16.18 5.77, 22.89 -0.32" stroke="#1864ab" stroke-width="1" fill="none"></path></g><g stroke-linecap="round"><g transform="translate(714.2296084360387 1405.2652025099658) rotate(90.25129405043909 -1.4044328618829809 21.991401229413214)"><path d="M-0.72 -0.26 C-1.17 7.23, -2.5 36.5, -3.03 43.89 M1.1 -1.45 C0.53 6.35, -3.5 37.61, -3.91 45.43" stroke="#d9480f" stroke-width="1" fill="none"></path></g><g transform="translate(714.2296084360387 1405.2652025099658) rotate(90.25129405043909 -1.4044328618829809 21.991401229413214)"><path d="M-9.87 24.37 C-8.09 28.77, -6.31 35.22, -2.8 45.14 M-10.15 23.21 C-8.36 30.39, -6.59 35.96, -4.38 46.42" stroke="#d9480f" stroke-width="1" fill="none"></path></g><g transform="translate(714.2296084360387 1405.2652025099658) rotate(90.25129405043909 -1.4044328618829809 21.991401229413214)"><path d="M5.11 25.8 C2.81 29.72, 0.51 35.78, -2.8 45.14 M4.83 24.65 C2.54 31.36, 0.24 36.54, -4.38 46.42" stroke="#d9480f" stroke-width="1" fill="none"></path></g></g><g transform="translate(740.9559273986526 1384.6618963617582) rotate(0 278.4873273721322 16.878019840735305)"><text x="0" y="23.75603968147057" font-family="Virgil, Segoe UI Emoji" font-size="27.004831745176443px" fill="#000000" text-anchor="start" style="white-space: pre;" direction="ltr">pay royalties to NFgene holders and DAO</text></g><g stroke-linecap="round" transform="translate(653.6599326210098 223.97716545844423) rotate(0 21.471717398776946 26.481797605902784)"><path d="M21.62 0.12 C30.03 7.35, 33.67 17.85, 42.56 28.72 M21.24 -0.7 C28.7 7.01, 34.87 16.42, 42.95 27.96 M42.78 27 C36.24 32.61, 33.68 40.57, 22.02 54.06 M43.71 27.36 C35.64 34.42, 29.12 42.96, 21.65 52.59 M22.64 54 C17.08 45.76, 9.54 37.52, 0.51 27.73 M22.73 53.42 C15.64 45.05, 7.81 35.23, 0.93 26.04 M-0.03 28.32 C6.74 15.57, 17.29 7.98, 21.42 -0.83 M0.19 26.68 C5.22 19.64, 11.91 14, 22.12 -0.08" stroke="#1864ab" stroke-width="1" fill="none"></path></g><g transform="translate(1019.4756044488115 845.9359671037673) rotate(0 130 43)"><text x="0" y="30" font-family="Virgil, Segoe UI Emoji" font-size="33.75603968147057px" fill="#000000" text-anchor="start" style="white-space: pre;" direction="ltr">document a new</text><text x="0" y="73" font-family="Virgil, Segoe UI Emoji" font-size="33.75603968147057px" fill="#000000" text-anchor="start" style="white-space: pre;" direction="ltr">RNA isoform</text></g></svg>