<svg version="1.1" xmlns="http://www.w3.org/2000/svg" viewBox="0 0 1868.6058696437153 830.1489593730212" width="1868.6058696437153" height="830.1489593730212">
  <!-- svg-source:excalidraw -->
  
  <defs>
    <style>
      @font-face {
        font-family: "Virgil";
        src: url("https://plus.excalidraw.com/Virgil.woff2");
      }
      @font-face {
        font-family: "Cascadia";
        src: url("https://plus.excalidraw.com/Cascadia.woff2");
      }
    </style>
  </defs>
  <rect x="0" y="0" width="1868.6058696437153" height="830.1489593730212" fill="#ffffff"></rect><g transform="translate(62.47016965255261 10) rotate(0 133 22.5)"><text x="0" y="32" font-family="Virgil, Segoe UI Emoji" font-size="36px" fill="#000000" text-anchor="start" style="white-space: pre;" direction="ltr">NFgene Project</text></g><g transform="translate(67.924715107098 51.5) rotate(0 155.5 67.5)"><text x="0" y="32" font-family="Virgil, Segoe UI Emoji" font-size="36px" fill="#000000" text-anchor="start" style="white-space: pre;" direction="ltr">- share knowledge</text><text x="0" y="77" font-family="Virgil, Segoe UI Emoji" font-size="36px" fill="#000000" text-anchor="start" style="white-space: pre;" direction="ltr">- create value</text><text x="0" y="122" font-family="Virgil, Segoe UI Emoji" font-size="36px" fill="#000000" text-anchor="start" style="white-space: pre;" direction="ltr">- build community</text></g><g transform="translate(41.32522808335921 645.1489593730212) rotate(0 376.5 87.5)"><text x="0" y="18" font-family="Virgil, Segoe UI Emoji" font-size="20px" fill="#000000" text-anchor="start" style="white-space: pre;" direction="ltr">Overall Project Goals:</text><text x="0" y="43" font-family="Virgil, Segoe UI Emoji" font-size="20px" fill="#000000" text-anchor="start" style="white-space: pre;" direction="ltr"> - a consolidated and searchable data source for human genes</text><text x="0" y="68" font-family="Virgil, Segoe UI Emoji" font-size="20px" fill="#000000" text-anchor="start" style="white-space: pre;" direction="ltr"> - a community driven process (citizen scientists) with economic incentive to </text><text x="0" y="93" font-family="Virgil, Segoe UI Emoji" font-size="20px" fill="#000000" text-anchor="start" style="white-space: pre;" direction="ltr">   ensure an ever evolving database</text><text x="0" y="118" font-family="Virgil, Segoe UI Emoji" font-size="20px" fill="#000000" text-anchor="start" style="white-space: pre;" direction="ltr"> - a DAO based scientific review process</text><text x="0" y="143" font-family="Virgil, Segoe UI Emoji" font-size="20px" fill="#000000" text-anchor="start" style="white-space: pre;" direction="ltr"> - a DAO based research fund</text><text x="0" y="168" font-family="Virgil, Segoe UI Emoji" font-size="20px" fill="#000000" text-anchor="start" style="white-space: pre;" direction="ltr"> - to drive education through NFT mints</text></g><g transform="translate(123.43890568258033 301.142178158953) rotate(0 44.5 12.5)"><text x="0" y="17" font-family="Virgil, Segoe UI Emoji" font-size="20px" fill="#10f52f" text-anchor="start" style="white-space: pre;" direction="ltr">- phase 1</text></g><g transform="translate(1511.285184373372 293.70163605792663) rotate(0 48.5 12.5)"><text x="0" y="17" font-family="Virgil, Segoe UI Emoji" font-size="20px" fill="#ff00ff" text-anchor="start" style="white-space: pre;" direction="ltr">- phase 4</text></g><g transform="translate(1015.8760379777757 297.0652550820298) rotate(0 49 12.5)"><text x="0" y="17" font-family="Virgil, Segoe UI Emoji" font-size="20px" fill="#1864ab" text-anchor="start" style="white-space: pre;" direction="ltr">- phase 3</text></g><g stroke-linecap="round"><g transform="translate(11.752465896336219 335.0798785546407) rotate(0 922.5504689255214 2.2788696824814565)"><path d="M-0.19 0.88 C307.78 1.31, 1539.1 2.28, 1846.85 2.73 M-1.75 0.3 C306.15 0.91, 1538.05 4.02, 1845.89 4.26" stroke="#000000" stroke-width="1" fill="none"></path></g><g transform="translate(11.752465896336219 335.0798785546407) rotate(0 922.5504689255214 2.2788696824814565)"><path d="M1819.15 14.43 C1823.74 11.42, 1831.33 10.48, 1846.08 4.84 M1816.81 14.34 C1827.85 10.4, 1836.25 7.6, 1846.84 3.26" stroke="#000000" stroke-width="1" fill="none"></path></g><g transform="translate(11.752465896336219 335.0798785546407) rotate(0 922.5504689255214 2.2788696824814565)"><path d="M1819.19 -6.09 C1823.8 -4.66, 1831.38 -1.16, 1846.08 4.84 M1816.84 -6.18 C1827.91 -3.2, 1836.29 0.92, 1846.84 3.26" stroke="#000000" stroke-width="1" fill="none"></path></g></g><g stroke-linecap="round" transform="translate(36.75976538860215 446.2925156716294) rotate(0 155.45454545454547 73.18181818181819)"><path d="M1.1 -2.85 C113.44 0.24, 231.13 3.29, 310.57 1.71 M-1.09 -1.06 C91.42 -3.25, 185.15 -2.69, 311.36 1.35 M310.3 -3.97 C311.26 39.32, 311.72 74.05, 312.42 144.55 M309.83 -0.35 C311.01 50.34, 311.5 97.05, 309.37 144.57 M311.64 144.41 C215.26 140.82, 112.8 144.07, -0.14 146.18 M311.79 147.07 C211.23 147.94, 110.91 148.02, -0.29 146.56 M-3.14 144.12 C0.63 115.62, 1.49 85.7, 3.8 -2.48 M-0.3 145.29 C2 100.37, 1.28 56.97, -0.77 0.35" stroke="#10f52f" stroke-width="1" fill="none"></path></g><g transform="translate(50.39612902496566 457.8379702170838) rotate(0 140 17.5)"><text x="0" y="25" font-family="Virgil, Segoe UI Emoji" font-size="28px" fill="#000000" text-anchor="start" style="white-space: pre;" direction="ltr">NFgene Genesis Mint</text></g><g transform="translate(53.12340175223841 497.8379702170839) rotate(0 135 30)"><text x="0" y="14" font-family="Virgil, Segoe UI Emoji" font-size="16px" fill="#10f52f" text-anchor="start" style="white-space: pre;" direction="ltr">- 20,213 Unique NFTs</text><text x="0" y="34" font-family="Virgil, Segoe UI Emoji" font-size="16px" fill="#10f52f" text-anchor="start" style="white-space: pre;" direction="ltr">- airdrop to research community</text><text x="0" y="54" font-family="Virgil, Segoe UI Emoji" font-size="16px" fill="#10f52f" text-anchor="start" style="white-space: pre;" direction="ltr">- free access to all NFgene data</text></g><g transform="translate(54.12340175223852 560.8379702170839) rotate(0 66 10)"><text x="0" y="14" font-family="Virgil, Segoe UI Emoji" font-size="16px" fill="#1864ab" text-anchor="start" style="white-space: pre;" direction="ltr">- DAO community</text></g><g stroke-linecap="round"><g transform="translate(47.78505952873405 362.92887930799304) rotate(0 138.37525663281025 -0.5212601988935717)"><path d="M-0.36 0.12 C45.69 0.37, 231.07 0.56, 277.11 0.42 M1.65 -0.87 C47.54 -0.88, 231.02 -1.66, 276.56 -1.49" stroke="#10f52f" stroke-width="1" fill="none"></path></g></g><g stroke-linecap="round" transform="translate(830.7143593938407 387.3834316983517) rotate(0 253.1818181818182 145.90909090909093)"><path d="M285.3 1.33 C307.5 0.55, 332.21 7.22, 353.2 12.24 C374.2 17.26, 393.44 23.25, 411.27 31.46 C429.09 39.67, 446.79 50.72, 460.15 61.51 C473.5 72.29, 483.95 83.83, 491.41 96.17 C498.88 108.51, 503.14 122.39, 504.93 135.55 C506.73 148.72, 506.76 162.25, 502.18 175.15 C497.6 188.04, 487.98 201.37, 477.43 212.91 C466.88 224.45, 454.18 234.91, 438.88 244.39 C423.57 253.87, 405.33 262.68, 385.61 269.77 C365.88 276.87, 342.6 283.17, 320.52 286.97 C298.45 290.78, 275.84 292.61, 253.16 292.63 C230.49 292.65, 206.41 290.64, 184.47 287.07 C162.53 283.5, 140.89 278.16, 121.54 271.22 C102.19 264.29, 83.85 255.27, 68.36 245.46 C52.87 235.65, 39.25 224.03, 28.59 212.38 C17.92 200.73, 8.92 188.58, 4.37 175.54 C-0.19 162.5, -0.56 147.45, 1.25 134.16 C3.05 120.87, 7.45 107.98, 15.17 95.77 C22.89 83.56, 34.34 71.58, 47.58 60.89 C60.82 50.21, 76.81 40.06, 94.61 31.67 C112.42 23.28, 133.43 15.66, 154.42 10.55 C175.41 5.44, 197.9 2.4, 220.55 1.02 C243.2 -0.37, 278.21 1.7, 290.31 2.25 C302.41 2.8, 293.8 1.93, 293.15 4.32 M324.67 7.05 C346.64 8.04, 366.72 14.94, 385.72 21.87 C404.72 28.79, 422.85 38.74, 438.69 48.6 C454.52 58.45, 470.45 69.5, 480.72 80.99 C490.99 92.49, 496.12 104.82, 500.3 117.55 C504.48 130.28, 507.36 144.28, 505.79 157.36 C504.22 170.45, 499.02 183.84, 490.87 196.06 C482.71 208.28, 470.17 219.76, 456.85 230.68 C443.53 241.59, 428.85 253.46, 410.93 261.57 C393 269.68, 370.75 274.49, 349.3 279.31 C327.85 284.14, 304.77 288.8, 282.21 290.53 C259.65 292.26, 236.52 291.63, 213.94 289.69 C191.36 287.75, 167.26 284.25, 146.72 278.87 C126.19 273.5, 107.85 266.14, 90.71 257.44 C73.57 248.73, 56.66 237.67, 43.89 226.64 C31.12 215.6, 21.56 203.67, 14.07 191.21 C6.57 178.75, 0.41 164.94, -1.06 151.88 C-2.53 138.82, -0.27 125.79, 5.23 112.86 C10.73 99.94, 20.87 85.99, 31.94 74.32 C43.01 62.65, 55.81 52.25, 71.67 42.84 C87.53 33.44, 107.13 24.15, 127.1 17.91 C147.08 11.67, 169.47 8.2, 191.53 5.42 C213.59 2.64, 237.44 0.97, 259.46 1.22 C281.49 1.48, 313.2 5.69, 323.69 6.94 C334.19 8.18, 323.49 6.73, 322.45 8.69" stroke="#1864ab" stroke-width="1" fill="none"></path></g><g transform="translate(987.9870866665683 407.47434078926085) rotate(0 83.5 17.5)"><text x="0" y="25" font-family="Virgil, Segoe UI Emoji" font-size="28px" fill="#000000" text-anchor="start" style="white-space: pre;" direction="ltr">NFgene DAO</text></g><g transform="translate(869.8052684847494 467.47434078926085) rotate(0 223.5 50)"><text x="0" y="14" font-family="Virgil, Segoe UI Emoji" font-size="16px" fill="#1864ab" text-anchor="start" style="white-space: pre;" direction="ltr">- community of NFgene holders</text><text x="0" y="34" font-family="Virgil, Segoe UI Emoji" font-size="16px" fill="#1864ab" text-anchor="start" style="white-space: pre;" direction="ltr">- owns and controls all NFgene project contracts</text><text x="0" y="54" font-family="Virgil, Segoe UI Emoji" font-size="16px" fill="#1864ab" text-anchor="start" style="white-space: pre;" direction="ltr">- accrues fees from project royalties</text><text x="0" y="74" font-family="Virgil, Segoe UI Emoji" font-size="16px" fill="#1864ab" text-anchor="start" style="white-space: pre;" direction="ltr">- reviews updates to NFgene database</text><text x="0" y="94" font-family="Virgil, Segoe UI Emoji" font-size="16px" fill="#1864ab" text-anchor="start" style="white-space: pre;" direction="ltr">- provides research grants for research/accomplishments</text></g><g transform="translate(950.0779957574773 578.5197953347152) rotate(0 133 25)"><text x="0" y="18" font-family="Virgil, Segoe UI Emoji" font-size="20px" fill="#000000" text-anchor="start" style="white-space: pre;" direction="ltr">- community driven goals</text><text x="0" y="43" font-family="Virgil, Segoe UI Emoji" font-size="20px" fill="#000000" text-anchor="start" style="white-space: pre;" direction="ltr">- decentralized peer review</text></g><g stroke-linecap="round"><g transform="translate(883.7850664645475 356.11070442562436) rotate(0 174.1107242184607 0.8468897202280914)"><path d="M-0.79 0.27 C57.51 0.5, 290.76 0.92, 349.01 0.83 M1 -0.64 C59.28 -0.16, 290.62 2.15, 348.49 2.33" stroke="#1864ab" stroke-width="1" fill="none"></path></g></g><g stroke-linecap="round"><g transform="translate(1380.7849762989752 355.01979880262195) rotate(0 174.51554846446584 -0.22868268837413552)"><path d="M-0.33 -0.3 C57.68 -0.15, 289.1 1.07, 347.17 1.12 M1.7 -1.51 C60.15 -1.75, 291.75 -1.29, 349.36 -0.89" stroke="#ff00ff" stroke-width="1" fill="none"></path></g></g><g stroke-linecap="round" transform="translate(1395.896080474273 393.01979880262195) rotate(0 222.3168979991567 170.9048573955829)"><path d="M0.98 -0.07 C111.06 -0.8, 222.18 0.91, 444.94 0.07 M-0.46 -0.41 C147.36 -0.4, 294.09 -0.99, 444.48 -0.27 M445.13 0.55 C447.83 112.41, 447.58 227.54, 445.25 341.35 M445.08 -0.13 C442.61 115.19, 442.96 230.96, 445.14 341.5 M445.08 341.89 C339.88 343.8, 232.92 342.55, -0.05 342.43 M444.41 342.2 C354.58 339.78, 265.3 339.84, -0.01 342.17 M0.58 342.76 C-2.02 256.56, -3.49 170.9, -1 -0.1 M-0.13 342.01 C-0.66 265.06, -1.48 188.57, 0.01 -0.44" stroke="#ff00ff" stroke-width="1" fill="none"></path></g><g transform="translate(1449.599520052155 406.1974495225727) rotate(0 108.21920009055646 17.374642216373672)"><text x="0" y="24.74928443274733" font-family="Virgil, Segoe UI Emoji" font-size="27.799427546197975px" fill="#000000" text-anchor="start" style="white-space: pre;" direction="ltr">NFgene projects</text></g><g stroke-linecap="round" transform="translate(1422.956082012624 618.1229556215161) rotate(0 7.446275235588814 9.928366980784972)"><path d="M7.44 1.02 C8.69 2.23, 10.19 6.03, 15.99 9.38 M8.5 0.18 C10.49 3.54, 13.46 7.74, 14.55 9.6 M13.89 10.22 C13.34 12.8, 10.82 17.19, 7.45 20.09 M15.44 10.52 C14.06 11.57, 12.17 14.33, 7.58 19.92 M8.55 20.75 C4.31 16.07, 2.13 11.86, 0.45 9.59 M7.55 19.65 C5.69 16.22, 2.4 12.78, -0.09 10.06 M0.52 8.86 C0.54 6.67, 4.18 6.48, 7.82 -0.44 M0.08 9.39 C1.49 7.46, 2.83 5.4, 7.79 -0.12" stroke="#000000" stroke-width="1" fill="none"></path></g><g transform="translate(1445.7913260684272 619.6122106686339) rotate(0 74 10)"><text x="0" y="14" font-family="Virgil, Segoe UI Emoji" font-size="15.885387169256012px" fill="#000000" text-anchor="start" style="white-space: pre;" direction="ltr">Protein structures</text></g><g transform="translate(1443.3092343232302 653.8650767523392) rotate(0 62.5 10)"><text x="0" y="14" font-family="Virgil, Segoe UI Emoji" font-size="15.885387169256049px" fill="#000000" text-anchor="start" style="white-space: pre;" direction="ltr">RNA structures</text></g><g stroke-linecap="round" transform="translate(1423.4525003616636 651.8794033561825) rotate(0 7.446275235588814 9.928366980784972)"><path d="M7.42 1.14 C10.34 3.72, 13.21 7.78, 15.99 10.4 M7.51 0.46 C10.53 2.35, 11.48 5.96, 14.6 10.24 M16.05 10.46 C12.98 12.3, 10.17 15.14, 7.54 19.05 M15.34 10.56 C13.57 12.34, 11.94 14.17, 7.48 19.46 M6.88 20.85 C6.75 18.64, 5.51 14.26, -0.08 11.19 M7.37 20.41 C4.89 16.92, 3.06 13.7, -0.22 10.54 M-0.03 9.15 C2.3 7.23, 4.69 5.74, 6.74 -0.53 M0.25 9.54 C2.62 7.02, 5.99 2.86, 8.08 -0.26" stroke="#000000" stroke-width="1" fill="none"></path></g><g transform="translate(1422.9560820126235 586.3521812829997) rotate(0 45.17406976257189 12.4104587259813)"><text x="0" y="16.820917451962583" font-family="Virgil, Segoe UI Emoji" font-size="19.856733961569855px" fill="#000000" text-anchor="start" style="white-space: pre;" direction="ltr">examples:</text></g><g transform="translate(1408.0808944961425 453.3120637404795) rotate(0 103.5 12.5)"><text x="0" y="18" font-family="Virgil, Segoe UI Emoji" font-size="19.85673396156995px" fill="#ff00ff" text-anchor="start" style="white-space: pre;" direction="ltr">Mint collectible NFTs</text></g><g transform="translate(1409.0737311942237 480.11865458859836) rotate(0 168.5 50)"><text x="0" y="14" font-family="Virgil, Segoe UI Emoji" font-size="15.885387169255921px" fill="#ff00ff" text-anchor="start" style="white-space: pre;" direction="ltr">- partner with artists to generate</text><text x="0" y="34" font-family="Virgil, Segoe UI Emoji" font-size="15.885387169255921px" fill="#ff00ff" text-anchor="start" style="white-space: pre;" direction="ltr">  unique NFT collections of 3D models of </text><text x="0" y="54" font-family="Virgil, Segoe UI Emoji" font-size="15.885387169255921px" fill="#ff00ff" text-anchor="start" style="white-space: pre;" direction="ltr">  proteins, RNAs and their interaction</text><text x="0" y="74" font-family="Virgil, Segoe UI Emoji" font-size="15.885387169255921px" fill="#ff00ff" text-anchor="start" style="white-space: pre;" direction="ltr">- develop a royalty model to further</text><text x="0" y="94" font-family="Virgil, Segoe UI Emoji" font-size="15.885387169255921px" fill="#ff00ff" text-anchor="start" style="white-space: pre;" direction="ltr">  funding for the DAO and new projects</text></g><g transform="translate(611.6056447494146 169.1996273941338) rotate(0 279.2592592592594 41.6114790286976)"><text x="0" y="58.22295805739519" font-family="Virgil, Segoe UI Emoji" font-size="66.5783664459162px" fill="#000000" text-anchor="start" style="white-space: pre;" direction="ltr">Project Roadmap</text></g><g stroke-linecap="round"><g transform="translate(432.3325875343593 359.648624594447) rotate(0 174.78046025198043 -0.09135847342707848)"><path d="M0.99 -0.44 C59.03 -0.54, 289.33 0.15, 347.28 0.31 M0.04 -1.72 C58.55 -1.74, 291.49 0.98, 349.52 1.54" stroke="#d9480f" stroke-width="1" fill="none"></path></g></g><g transform="translate(544.1105318190787 297.37767331672103) rotate(0 48.99999999999997 12.5)"><text x="0" y="17" font-family="Virgil, Segoe UI Emoji" font-size="20px" fill="#d9480f" text-anchor="start" style="white-space: pre;" direction="ltr">- phase 2</text></g><g stroke-linecap="round" transform="translate(427.8779796574954 437.04255705257333) rotate(0 169.375 84.01785714285717)"><path d="M1.19 0.87 C97.88 0.92, 193.89 0.23, 339.89 -1.08 M-0.52 0.44 C135.5 -2.52, 269.61 -2.16, 338.43 -0.57 M337.68 -1.47 C338.81 48.9, 339.46 93.75, 337.94 167.04 M339.26 0.62 C340.15 53.65, 340.49 106, 339.37 167.25 M339.25 169.23 C232.27 170.04, 127.18 169.73, -1.26 168.29 M338.93 167.83 C257.76 166.43, 177.77 165.89, 0.45 167.83 M0.4 169.57 C-0.24 109.94, -0.54 46.92, 0.08 -0.38 M0.38 167.57 C0.38 101.73, -0.32 36.14, 0.29 0.77" stroke="#d9480f" stroke-width="1" fill="none"></path></g><g transform="translate(492.8779796574954 451.04255705257333) rotate(0 105.5 17.5)"><text x="0" y="25" font-family="Virgil, Segoe UI Emoji" font-size="28px" fill="#000000" text-anchor="start" style="white-space: pre;" direction="ltr">User Interface</text></g><g transform="translate(451.63117101958755 501.57455673676543) rotate(0 142 40)"><text x="0" y="14" font-family="Virgil, Segoe UI Emoji" font-size="16px" fill="#d9480f" text-anchor="start" style="white-space: pre;" direction="ltr">- UI for holders to add information</text><text x="0" y="34" font-family="Virgil, Segoe UI Emoji" font-size="16px" fill="#d9480f" text-anchor="start" style="white-space: pre;" direction="ltr">  to the NFgene NFTs</text><text x="0" y="54" font-family="Virgil, Segoe UI Emoji" font-size="16px" fill="#d9480f" text-anchor="start" style="white-space: pre;" direction="ltr">- UI for scientists to access and</text><text x="0" y="74" font-family="Virgil, Segoe UI Emoji" font-size="16px" fill="#d9480f" text-anchor="start" style="white-space: pre;" direction="ltr">  interact with the gene data</text></g><g transform="translate(1442.2790970707924 688.2725575153735) rotate(0 184 10)"><text x="0" y="14" font-family="Virgil, Segoe UI Emoji" font-size="15.885387169256049px" fill="#000000" text-anchor="start" style="white-space: pre;" direction="ltr">Protein-complexes (protein-protein interactions)</text></g><g stroke-linecap="round" transform="translate(1422.422363109226 686.2868841192168) rotate(0 7.446275235588814 9.928366980784972)"><path d="M9.14 0.12 C9.83 2.1, 11.55 5.94, 13.75 10.75 M8.47 0.53 C10.74 4.28, 13.29 7.24, 14.4 9.93 M14.36 10.06 C12.43 14.09, 11.58 16.97, 6.84 21.01 M14.33 9.6 C13.2 12.18, 12.05 14.31, 8.19 19.73 M6.8 19.03 C6.51 17.66, 2.67 14.33, -0.46 9.68 M8.52 19.67 C5.86 16.46, 2.93 14.55, -0.35 9.41 M0.17 9.49 C3 7.91, 4.88 5.4, 8.48 -0.4 M-0.53 10.46 C3.54 5.72, 6.29 2.41, 8 -0.61" stroke="#000000" stroke-width="1" fill="none"></path></g></svg>